<mxfile host="app.diagrams.net" modified="2021-03-16T17:36:05.358Z" agent="5.0 (Windows NT 10.0; Win64; x64) AppleWebKit/537.36 (KHTML, like Gecko) Chrome/89.0.4389.90 Safari/537.36 Edg/89.0.774.54" etag="oEDGY9dSx_ntWEniOeeJ" version="14.4.8" type="github">
  <diagram id="E069Lc-wucOL07pGtqWa" name="Page-1">
    <mxGraphModel dx="1525" dy="1757" grid="1" gridSize="10" guides="1" tooltips="1" connect="1" arrows="1" fold="1" page="1" pageScale="1" pageWidth="827" pageHeight="1169" math="0" shadow="0">
      <root>
        <mxCell id="0" />
        <mxCell id="1" parent="0" />
        <mxCell id="L7r8byqwgEOWLe7mSnxh-1" value="Ficha Médica" style="rounded=0;whiteSpace=wrap;html=1;" vertex="1" parent="1">
          <mxGeometry x="360.5" y="-1130" width="120" height="30" as="geometry" />
        </mxCell>
        <mxCell id="L7r8byqwgEOWLe7mSnxh-2" value="Código" style="ellipse;whiteSpace=wrap;html=1;" vertex="1" parent="1">
          <mxGeometry x="44" y="-1070" width="71" height="40" as="geometry" />
        </mxCell>
        <mxCell id="L7r8byqwgEOWLe7mSnxh-3" value="Nome" style="ellipse;whiteSpace=wrap;html=1;" vertex="1" parent="1">
          <mxGeometry x="125" y="-1070" width="71" height="40" as="geometry" />
        </mxCell>
        <mxCell id="L7r8byqwgEOWLe7mSnxh-4" value="Data de Nascimento" style="ellipse;whiteSpace=wrap;html=1;" vertex="1" parent="1">
          <mxGeometry x="205" y="-1070" width="91" height="40" as="geometry" />
        </mxCell>
        <mxCell id="L7r8byqwgEOWLe7mSnxh-5" value="Convênio" style="ellipse;whiteSpace=wrap;html=1;" vertex="1" parent="1">
          <mxGeometry x="305" y="-1070" width="71" height="40" as="geometry" />
        </mxCell>
        <mxCell id="L7r8byqwgEOWLe7mSnxh-6" value="Sexo" style="ellipse;whiteSpace=wrap;html=1;" vertex="1" parent="1">
          <mxGeometry x="380" y="-1070" width="81" height="40" as="geometry" />
        </mxCell>
        <mxCell id="L7r8byqwgEOWLe7mSnxh-7" value="Endereço" style="ellipse;whiteSpace=wrap;html=1;" vertex="1" parent="1">
          <mxGeometry x="465" y="-1070" width="71" height="40" as="geometry" />
        </mxCell>
        <mxCell id="L7r8byqwgEOWLe7mSnxh-8" value="Telefone" style="ellipse;whiteSpace=wrap;html=1;" vertex="1" parent="1">
          <mxGeometry x="545" y="-1070" width="71" height="40" as="geometry" />
        </mxCell>
        <mxCell id="L7r8byqwgEOWLe7mSnxh-9" value="Consultas" style="ellipse;whiteSpace=wrap;html=1;" vertex="1" parent="1">
          <mxGeometry x="625" y="-1070" width="71" height="40" as="geometry" />
        </mxCell>
        <mxCell id="L7r8byqwgEOWLe7mSnxh-11" value="Resultados Exames" style="ellipse;whiteSpace=wrap;html=1;" vertex="1" parent="1">
          <mxGeometry x="704" y="-1070" width="80" height="40" as="geometry" />
        </mxCell>
        <mxCell id="L7r8byqwgEOWLe7mSnxh-12" value="" style="endArrow=none;html=1;entryX=0;entryY=0.5;entryDx=0;entryDy=0;exitX=0.5;exitY=0;exitDx=0;exitDy=0;" edge="1" parent="1" source="L7r8byqwgEOWLe7mSnxh-2" target="L7r8byqwgEOWLe7mSnxh-1">
          <mxGeometry width="50" height="50" relative="1" as="geometry">
            <mxPoint x="220" y="-900" as="sourcePoint" />
            <mxPoint x="270" y="-950" as="targetPoint" />
          </mxGeometry>
        </mxCell>
        <mxCell id="L7r8byqwgEOWLe7mSnxh-14" value="" style="endArrow=none;html=1;entryX=0;entryY=0.75;entryDx=0;entryDy=0;exitX=0.5;exitY=0;exitDx=0;exitDy=0;" edge="1" parent="1" source="L7r8byqwgEOWLe7mSnxh-3" target="L7r8byqwgEOWLe7mSnxh-1">
          <mxGeometry width="50" height="50" relative="1" as="geometry">
            <mxPoint x="50" y="-950" as="sourcePoint" />
            <mxPoint x="100" y="-1000" as="targetPoint" />
          </mxGeometry>
        </mxCell>
        <mxCell id="L7r8byqwgEOWLe7mSnxh-16" value="" style="endArrow=none;html=1;entryX=0;entryY=1;entryDx=0;entryDy=0;exitX=0.5;exitY=0;exitDx=0;exitDy=0;" edge="1" parent="1" source="L7r8byqwgEOWLe7mSnxh-4" target="L7r8byqwgEOWLe7mSnxh-1">
          <mxGeometry width="50" height="50" relative="1" as="geometry">
            <mxPoint x="270" y="-910" as="sourcePoint" />
            <mxPoint x="320" y="-960" as="targetPoint" />
          </mxGeometry>
        </mxCell>
        <mxCell id="L7r8byqwgEOWLe7mSnxh-17" value="" style="endArrow=none;html=1;entryX=1;entryY=0.5;entryDx=0;entryDy=0;exitX=0.5;exitY=0;exitDx=0;exitDy=0;" edge="1" parent="1" source="L7r8byqwgEOWLe7mSnxh-11" target="L7r8byqwgEOWLe7mSnxh-1">
          <mxGeometry width="50" height="50" relative="1" as="geometry">
            <mxPoint x="320" y="-900" as="sourcePoint" />
            <mxPoint x="370" y="-950" as="targetPoint" />
          </mxGeometry>
        </mxCell>
        <mxCell id="L7r8byqwgEOWLe7mSnxh-18" value="" style="endArrow=none;html=1;entryX=1;entryY=0.75;entryDx=0;entryDy=0;exitX=0.5;exitY=0;exitDx=0;exitDy=0;" edge="1" parent="1" source="L7r8byqwgEOWLe7mSnxh-9" target="L7r8byqwgEOWLe7mSnxh-1">
          <mxGeometry width="50" height="50" relative="1" as="geometry">
            <mxPoint x="390" y="-900" as="sourcePoint" />
            <mxPoint x="440" y="-950" as="targetPoint" />
          </mxGeometry>
        </mxCell>
        <mxCell id="L7r8byqwgEOWLe7mSnxh-19" value="" style="endArrow=none;html=1;entryX=1;entryY=1;entryDx=0;entryDy=0;exitX=0.5;exitY=0;exitDx=0;exitDy=0;" edge="1" parent="1" source="L7r8byqwgEOWLe7mSnxh-8" target="L7r8byqwgEOWLe7mSnxh-1">
          <mxGeometry width="50" height="50" relative="1" as="geometry">
            <mxPoint x="250" y="-880" as="sourcePoint" />
            <mxPoint x="300" y="-930" as="targetPoint" />
          </mxGeometry>
        </mxCell>
        <mxCell id="L7r8byqwgEOWLe7mSnxh-20" value="" style="endArrow=none;html=1;entryX=0.173;entryY=0.997;entryDx=0;entryDy=0;entryPerimeter=0;exitX=0.5;exitY=0;exitDx=0;exitDy=0;" edge="1" parent="1" source="L7r8byqwgEOWLe7mSnxh-5" target="L7r8byqwgEOWLe7mSnxh-1">
          <mxGeometry width="50" height="50" relative="1" as="geometry">
            <mxPoint x="130" y="-900" as="sourcePoint" />
            <mxPoint x="180" y="-950" as="targetPoint" />
          </mxGeometry>
        </mxCell>
        <mxCell id="L7r8byqwgEOWLe7mSnxh-21" value="" style="endArrow=none;html=1;entryX=0.5;entryY=1;entryDx=0;entryDy=0;exitX=0.5;exitY=0;exitDx=0;exitDy=0;" edge="1" parent="1" source="L7r8byqwgEOWLe7mSnxh-6" target="L7r8byqwgEOWLe7mSnxh-1">
          <mxGeometry width="50" height="50" relative="1" as="geometry">
            <mxPoint x="490" y="-880" as="sourcePoint" />
            <mxPoint x="540" y="-930" as="targetPoint" />
          </mxGeometry>
        </mxCell>
        <mxCell id="L7r8byqwgEOWLe7mSnxh-22" value="" style="endArrow=none;html=1;entryX=0.852;entryY=1.059;entryDx=0;entryDy=0;entryPerimeter=0;exitX=0.5;exitY=0;exitDx=0;exitDy=0;" edge="1" parent="1" source="L7r8byqwgEOWLe7mSnxh-7" target="L7r8byqwgEOWLe7mSnxh-1">
          <mxGeometry width="50" height="50" relative="1" as="geometry">
            <mxPoint x="290" y="-850" as="sourcePoint" />
            <mxPoint x="340" y="-900" as="targetPoint" />
          </mxGeometry>
        </mxCell>
        <mxCell id="L7r8byqwgEOWLe7mSnxh-23" value="Constituido de" style="rhombus;whiteSpace=wrap;html=1;" vertex="1" parent="1">
          <mxGeometry x="608" y="-1000" width="105" height="50" as="geometry" />
        </mxCell>
        <mxCell id="L7r8byqwgEOWLe7mSnxh-24" value="Constituido de" style="rhombus;whiteSpace=wrap;html=1;" vertex="1" parent="1">
          <mxGeometry x="691.5" y="-850" width="105" height="50" as="geometry" />
        </mxCell>
        <mxCell id="L7r8byqwgEOWLe7mSnxh-25" value="" style="endArrow=none;html=1;entryX=0.5;entryY=1;entryDx=0;entryDy=0;exitX=0.5;exitY=0;exitDx=0;exitDy=0;" edge="1" parent="1" source="L7r8byqwgEOWLe7mSnxh-23" target="L7r8byqwgEOWLe7mSnxh-9">
          <mxGeometry width="50" height="50" relative="1" as="geometry">
            <mxPoint x="340" y="-900" as="sourcePoint" />
            <mxPoint x="390" y="-950" as="targetPoint" />
          </mxGeometry>
        </mxCell>
        <mxCell id="L7r8byqwgEOWLe7mSnxh-26" value="" style="endArrow=none;html=1;entryX=0.5;entryY=1;entryDx=0;entryDy=0;exitX=0.5;exitY=0;exitDx=0;exitDy=0;" edge="1" parent="1" source="L7r8byqwgEOWLe7mSnxh-24" target="L7r8byqwgEOWLe7mSnxh-11">
          <mxGeometry width="50" height="50" relative="1" as="geometry">
            <mxPoint x="250" y="-930" as="sourcePoint" />
            <mxPoint x="300" y="-980" as="targetPoint" />
          </mxGeometry>
        </mxCell>
        <mxCell id="L7r8byqwgEOWLe7mSnxh-27" value="Consultas" style="rounded=0;whiteSpace=wrap;html=1;" vertex="1" parent="1">
          <mxGeometry x="616" y="-940" width="89" height="30" as="geometry" />
        </mxCell>
        <mxCell id="L7r8byqwgEOWLe7mSnxh-28" value="Data" style="ellipse;whiteSpace=wrap;html=1;" vertex="1" parent="1">
          <mxGeometry x="564" y="-890" width="50" height="30" as="geometry" />
        </mxCell>
        <mxCell id="L7r8byqwgEOWLe7mSnxh-29" value="Descrição" style="ellipse;whiteSpace=wrap;html=1;" vertex="1" parent="1">
          <mxGeometry x="620.5" y="-890" width="80" height="30" as="geometry" />
        </mxCell>
        <mxCell id="L7r8byqwgEOWLe7mSnxh-32" value="" style="endArrow=none;html=1;entryX=0.5;entryY=1;entryDx=0;entryDy=0;exitX=0.5;exitY=0;exitDx=0;exitDy=0;" edge="1" parent="1" source="L7r8byqwgEOWLe7mSnxh-27" target="L7r8byqwgEOWLe7mSnxh-23">
          <mxGeometry width="50" height="50" relative="1" as="geometry">
            <mxPoint x="350" y="-780" as="sourcePoint" />
            <mxPoint x="400" y="-830" as="targetPoint" />
          </mxGeometry>
        </mxCell>
        <mxCell id="L7r8byqwgEOWLe7mSnxh-33" value="" style="endArrow=none;html=1;entryX=0;entryY=1;entryDx=0;entryDy=0;exitX=0.5;exitY=0;exitDx=0;exitDy=0;" edge="1" parent="1" source="L7r8byqwgEOWLe7mSnxh-28" target="L7r8byqwgEOWLe7mSnxh-27">
          <mxGeometry width="50" height="50" relative="1" as="geometry">
            <mxPoint x="360" y="-800" as="sourcePoint" />
            <mxPoint x="410" y="-850" as="targetPoint" />
          </mxGeometry>
        </mxCell>
        <mxCell id="L7r8byqwgEOWLe7mSnxh-34" value="" style="endArrow=none;html=1;entryX=0.5;entryY=1;entryDx=0;entryDy=0;exitX=0.5;exitY=0;exitDx=0;exitDy=0;" edge="1" parent="1" source="L7r8byqwgEOWLe7mSnxh-29" target="L7r8byqwgEOWLe7mSnxh-27">
          <mxGeometry width="50" height="50" relative="1" as="geometry">
            <mxPoint x="250" y="-740" as="sourcePoint" />
            <mxPoint x="300" y="-790" as="targetPoint" />
          </mxGeometry>
        </mxCell>
        <mxCell id="L7r8byqwgEOWLe7mSnxh-40" value="Exames" style="rounded=0;whiteSpace=wrap;html=1;" vertex="1" parent="1">
          <mxGeometry x="699.5" y="-789" width="89" height="30" as="geometry" />
        </mxCell>
        <mxCell id="L7r8byqwgEOWLe7mSnxh-41" value="Data" style="ellipse;whiteSpace=wrap;html=1;" vertex="1" parent="1">
          <mxGeometry x="646" y="-739" width="50" height="30" as="geometry" />
        </mxCell>
        <mxCell id="L7r8byqwgEOWLe7mSnxh-42" value="Descrição" style="ellipse;whiteSpace=wrap;html=1;" vertex="1" parent="1">
          <mxGeometry x="704" y="-739" width="80" height="30" as="geometry" />
        </mxCell>
        <mxCell id="L7r8byqwgEOWLe7mSnxh-43" value="" style="endArrow=none;html=1;entryX=0;entryY=1;entryDx=0;entryDy=0;exitX=0.5;exitY=0;exitDx=0;exitDy=0;" edge="1" parent="1" source="L7r8byqwgEOWLe7mSnxh-41" target="L7r8byqwgEOWLe7mSnxh-40">
          <mxGeometry width="50" height="50" relative="1" as="geometry">
            <mxPoint x="436" y="-610" as="sourcePoint" />
            <mxPoint x="486" y="-660" as="targetPoint" />
          </mxGeometry>
        </mxCell>
        <mxCell id="L7r8byqwgEOWLe7mSnxh-44" value="" style="endArrow=none;html=1;entryX=0.5;entryY=1;entryDx=0;entryDy=0;exitX=0.5;exitY=0;exitDx=0;exitDy=0;" edge="1" parent="1" source="L7r8byqwgEOWLe7mSnxh-42" target="L7r8byqwgEOWLe7mSnxh-40">
          <mxGeometry width="50" height="50" relative="1" as="geometry">
            <mxPoint x="326" y="-550" as="sourcePoint" />
            <mxPoint x="376" y="-600" as="targetPoint" />
          </mxGeometry>
        </mxCell>
        <mxCell id="L7r8byqwgEOWLe7mSnxh-45" value="" style="endArrow=none;html=1;entryX=0.5;entryY=1;entryDx=0;entryDy=0;exitX=0.5;exitY=0;exitDx=0;exitDy=0;" edge="1" parent="1" source="L7r8byqwgEOWLe7mSnxh-40" target="L7r8byqwgEOWLe7mSnxh-24">
          <mxGeometry width="50" height="50" relative="1" as="geometry">
            <mxPoint x="330" y="-730" as="sourcePoint" />
            <mxPoint x="380" y="-780" as="targetPoint" />
          </mxGeometry>
        </mxCell>
      </root>
    </mxGraphModel>
  </diagram>
</mxfile>
